<svg
  width="51"
  height="100"
  viewBox="0 0 51 100"
  fill="none"
  xmlns="http://www.w3.org/2000/svg"
>
  <rect width="50.3374" height="100" fill="#5E5E5E" fill-opacity="0.26" />
  <rect x="13" y="26" width="24" height="23.5989" rx="3" fill="white" />
  <path
    d="M17.0307 30.8517C17.0307 30.3813 17.4184 30 17.8966 30H21.8034C22.2816 30 22.6693 30.3813 22.6693 30.8517V31.4531C22.6693 31.9235 22.2816 32.3047 21.8034 32.3047H17.8966C17.4184 32.3047 17.0307 31.9235 17.0307 31.4531V30.8517Z"
    fill="#ED1C24"
  />
  <path
    d="M22.6693 30.8517C22.6693 30.3813 23.057 30 23.5352 30H32.446C32.9243 30 33.312 30.3813 33.312 30.8517V31.4531C33.312 31.9235 32.9243 32.3047 32.446 32.3047H23.5352C23.057 32.3047 22.6693 31.9235 22.6693 31.4531V30.8517Z"
    fill="#0051D4"
  />
  <path
    d="M21.1199 39.3134C21.1199 38.8431 21.5076 38.4618 21.9858 38.4618H26.8551C27.3333 38.4618 27.721 38.8431 27.721 39.3134V39.9148C27.721 40.3852 27.3333 40.7665 26.8551 40.7665H21.9858C21.5076 40.7665 21.1199 40.3852 21.1199 39.9148V39.3134Z"
    fill="#00CC1D"
  />
  <path
    d="M27.6613 39.334C27.6613 38.8637 28.049 38.4824 28.5272 38.4824H32.434C32.9123 38.4824 33.2999 38.8637 33.2999 39.334V39.9112C33.2999 40.3816 32.9123 40.7629 32.434 40.7629H28.5272C28.049 40.7629 27.6613 40.3816 27.6613 39.9112V39.334Z"
    fill="#ED1C24"
  />
  <path
    d="M17.0307 39.3134C17.0307 38.8431 17.4184 38.4618 17.8966 38.4618H20.254C20.7322 38.4618 21.1199 38.8431 21.1199 39.3134V39.9148C21.1199 40.3852 20.7322 40.7665 20.254 40.7665H17.8966C17.4184 40.7665 17.0307 40.3852 17.0307 39.9148V39.3134Z"
    fill="#F92EAD"
  />
  <path
    d="M25.3536 35.1569C25.3536 34.6865 25.7413 34.3052 26.2195 34.3052H32.4323C32.9106 34.3052 33.2983 34.6865 33.2983 35.1569V35.6815C33.2983 36.1519 32.9106 36.5332 32.4323 36.5332H26.2195C25.7413 36.5332 25.3536 36.1519 25.3536 35.6815V35.1569Z"
    fill="#00CC1D"
  />
  <path
    d="M17 35.0801C17 34.6097 17.3877 34.2284 17.8659 34.2284H21.6837C22.1619 34.2284 22.5496 34.6097 22.5496 35.0801V35.6815C22.5496 36.1519 22.1619 36.5332 21.6837 36.5332H17.8659C17.3877 36.5332 17 36.1519 17 35.6815V35.0801Z"
    fill="#FCEC00"
  />
  <path
    d="M22.5496 35.0801C22.5496 34.6097 22.9373 34.2284 23.4155 34.2284H24.494C24.9722 34.2284 25.3599 34.6097 25.3599 35.0801V35.6573C25.3599 36.1277 24.9722 36.509 24.494 36.509H23.4155C22.9373 36.509 22.5496 36.1277 22.5496 35.6573V35.0801Z"
    fill="#F92EAD"
  />
  <path
    d="M21.1282 43.9229C21.1282 43.4525 21.5159 43.0712 21.9942 43.0712H24.5593C25.0375 43.0712 25.4252 43.4525 25.4252 43.9229V44.5243C25.4252 44.9947 25.0375 45.376 24.5593 45.376H21.9942C21.5159 45.376 21.1282 44.9947 21.1282 44.5243V43.9229Z"
    fill="#F79700"
  />
  <path
    d="M17.0307 43.923C17.0307 43.4526 17.4184 43.0713 17.8966 43.0713H20.2623C20.7405 43.0713 21.1282 43.4526 21.1282 43.923V44.5244C21.1282 44.9947 20.7405 45.376 20.2623 45.376H17.8966C17.4184 45.376 17.0307 44.9947 17.0307 44.5244V43.923Z"
    fill="#0051D4"
  />
  <path
    d="M25.3707 43.9229C25.3707 43.4525 25.7584 43.0712 26.2366 43.0712H32.446C32.9242 43.0712 33.3119 43.4525 33.3119 43.9229V44.5243C33.3119 44.9947 32.9242 45.376 32.446 45.376H26.2366C25.7584 45.376 25.3707 44.9947 25.3707 44.5243V43.9229Z"
    fill="#FCEC00"
  />
</svg>
